<?xml version="1.0" encoding="UTF-8"?>
<svg version="1.1" xmlns="http://www.w3.org/2000/svg" width="16" height="20">
<path d="M0 0 C3.29337016 1.48201657 5.19820467 3.36284561 7.5 6.125 C7.5 7.115 7.5 8.105 7.5 9.125 C4.63275314 8.55155063 3.6385485 8.2635485 1.5 6.125 C1.17 10.745 0.84 15.365 0.5 20.125 C-0.16 20.125 -0.82 20.125 -1.5 20.125 C-1.83 15.505 -2.16 10.885 -2.5 6.125 C-3.49 7.115 -4.48 8.105 -5.5 9.125 C-6.49 9.125 -7.48 9.125 -8.5 9.125 C-8.15657251 6.03415263 -7.24044345 4.80055431 -5.25 2.3125 C-2.5 0.125 -2.5 0.125 0 0 Z " fill="#80A4F9" transform="translate(8.5,-0.125)"/>
</svg>
