<?xml version="1.0" encoding="UTF-8"?>
<svg version="1.1" xmlns="http://www.w3.org/2000/svg" width="20" height="25">
<path d="M0 0 C-0.50603992 2.16874252 -0.99983813 3.99967627 -2 6 C-1.05125 6.391875 -0.1025 6.78375 0.875 7.1875 C4.50301739 9.29175009 4.84631923 10.09523431 6 14 C6.1953125 16.89453125 6.1953125 16.89453125 6.125 19.8125 C6.10695313 20.78832031 6.08890625 21.76414062 6.0703125 22.76953125 C6.03550781 23.87361328 6.03550781 23.87361328 6 25 C5.01 25 4.02 25 3 25 C2.93941406 24.25234375 2.87882813 23.5046875 2.81640625 22.734375 C2.73261719 21.74953125 2.64882812 20.7646875 2.5625 19.75 C2.48128906 18.77546875 2.40007813 17.8009375 2.31640625 16.796875 C2.04925416 14.43538247 1.64628032 12.28098935 1 10 C-0.32 10 -1.64 10 -3 10 C-2.2575 10.6496875 -2.2575 10.6496875 -1.5 11.3125 C0 13 0 13 0 16 C-3.09084737 15.65657251 -4.32444569 14.74044345 -6.8125 12.75 C-9 10 -9 10 -9.125 7.5 C-7.21260253 3.25022785 -4.84390855 0 0 0 Z " fill="#81A2F8" transform="translate(9,0)"/>
</svg>
