<?xml version="1.0" encoding="UTF-8"?>
<svg version="1.1" xmlns="http://www.w3.org/2000/svg" width="44" height="40">
<path d="M0 0 C4.29227942 0.46269985 6.02922065 2.90159458 8.75 6.0625 C9.94882812 7.44115234 9.94882812 7.44115234 11.171875 8.84765625 C11.77515625 9.55792969 12.3784375 10.26820312 13 11 C11.57849991 14.13152248 9.86435776 16.58143518 7.625 19.1875 C7.03976563 19.88230469 6.45453125 20.57710937 5.8515625 21.29296875 C3.86548775 23.12401235 2.63765924 23.61074192 0 24 C0 19.63204596 0.22762148 19.25341007 3 16.25 C3.556875 15.63640625 4.11375 15.0228125 4.6875 14.390625 C5.3371875 13.70226562 5.3371875 13.70226562 6 13 C4.73131789 10.24225438 3.37619615 8.15493856 1.3125 5.9375 C0.549375 4.968125 -0.21375 3.99875 -1 3 C-0.67 2.01 -0.34 1.02 0 0 Z " fill="#2956D7" transform="translate(26,8)"/>
<path d="M0 0 C4.29227942 0.46269985 6.02922065 2.90159458 8.75 6.0625 C9.94882812 7.44115234 9.94882812 7.44115234 11.171875 8.84765625 C11.77515625 9.55792969 12.3784375 10.26820312 13 11 C11.57849991 14.13152248 9.86435776 16.58143518 7.625 19.1875 C7.03976563 19.88230469 6.45453125 20.57710937 5.8515625 21.29296875 C3.86548775 23.12401235 2.63765924 23.61074192 0 24 C0 19.63204596 0.22762148 19.25341007 3 16.25 C3.556875 15.63640625 4.11375 15.0228125 4.6875 14.390625 C5.3371875 13.70226562 5.3371875 13.70226562 6 13 C4.73131789 10.24225438 3.37619615 8.15493856 1.3125 5.9375 C0.549375 4.968125 -0.21375 3.99875 -1 3 C-0.67 2.01 -0.34 1.02 0 0 Z " fill="#2956D7" transform="translate(17,8)"/>
</svg>
